HIERARCHY
ROOT Hips
{
	OFFSET 0.000000 0.000000 0.000000 
	CHANNELS 6 Xposition Yposition Zposition Zrotation Yrotation Xrotation
	JOINT LeftUpLeg
	{
		OFFSET 1.363060 -1.794630 0.839290 
		CHANNELS 3 Zrotation Yrotation Xrotation
		JOINT LeftLeg
		{
			OFFSET 2.448110 -6.726130 0.000000 
			CHANNELS 3 Zrotation Yrotation Xrotation
			JOINT LeftFoot
			{
				OFFSET 2.562200 -7.039590 0.000000 
				CHANNELS 3 Zrotation Yrotation Xrotation
				JOINT LeftToeBase
				{
					OFFSET 0.157640 -0.433110 2.322550 
					CHANNELS 3 Zrotation Yrotation Xrotation
					End Site
					{
						OFFSET 0.000000 0.000000 0.000000 
					}
				}
			}
		}
	}
	JOINT RightUpLeg
	{
		OFFSET -1.305520 -1.794630 0.839290 
		CHANNELS 3 Zrotation Yrotation Xrotation
		JOINT RightLeg
		{
			OFFSET -2.542530 -6.985550 0.000000 
			CHANNELS 3 Zrotation Yrotation Xrotation
			JOINT RightFoot
			{
				OFFSET -2.568260 -7.056230 0.000000 
				CHANNELS 3 Zrotation Yrotation Xrotation
				JOINT RightToeBase
				{
					OFFSET -0.164730 -0.452590 2.363150 
					CHANNELS 3 Zrotation Yrotation Xrotation
					End Site
					{
						OFFSET 0.000000 0.000000 0.000000 
					}
				}
			}
		}
	}
	JOINT Spine
	{
		OFFSET 0.028270 2.035590 -0.193380 
		CHANNELS 3 Zrotation Yrotation Xrotation
		JOINT Spine1
		{
			OFFSET 0.056720 2.048850 -0.042750 
			CHANNELS 3 Zrotation Yrotation Xrotation
			JOINT Neck1
			{
				OFFSET -0.054170 1.746240 0.172020 
				CHANNELS 3 Zrotation Yrotation Xrotation
				JOINT Head
				{
					OFFSET 0.104070 1.761360 -0.123970 
					CHANNELS 3 Zrotation Yrotation Xrotation
					End Site
					{
						OFFSET 0.000000 0.000000 0.000000 
					}
				}
			}
			JOINT LeftArm
			{
				OFFSET 3.362410 1.200890 -0.311210 
				CHANNELS 3 Zrotation Yrotation Xrotation
				JOINT LeftForeArm
				{
					OFFSET 4.983000 -0.000000 -0.000000 
					CHANNELS 3 Zrotation Yrotation Xrotation
					JOINT LeftHand
					{
						OFFSET 3.483560 -0.000000 -0.000000 
						CHANNELS 3 Zrotation Yrotation Xrotation
						JOINT LeftHandIndex1
						{
							OFFSET 0.715260 -0.000000 -0.000000 
							CHANNELS 3 Zrotation Yrotation Xrotation
							End Site
							{
								OFFSET 0.000000 0.000000 0.000000 
							}
						}
					}
				}
			}
			JOINT RightArm
			{
				OFFSET -3.136600 1.374050 -0.404650 
				CHANNELS 3 Zrotation Yrotation Xrotation
				JOINT RightForeArm
				{
					OFFSET -5.241900 -0.000000 -0.000000 
					CHANNELS 3 Zrotation Yrotation Xrotation
					JOINT RightHand
					{
						OFFSET -3.444170 -0.000000 -0.000000 
						CHANNELS 3 Zrotation Yrotation Xrotation
						JOINT RightHandIndex1
						{
							OFFSET -0.622530 -0.000000 -0.000000 
							CHANNELS 3 Zrotation Yrotation Xrotation
							End Site
							{
								OFFSET 0.000000 0.000000 0.000000 
							}
						}
					}
				}
			}
		}
	}
}
MOTION
Frames: 13
Frame Time: 0.041667
-5.894737 16.013364 3.547707 -16.159921 42.524350 -14.549088 -35.978513 6.519366 -38.053181 4.731270 14.821543 44.639087 1.068224 -0.245294 17.410959 2.472500 9.787700 28.292000 7.862496 6.353684 8.360404 -3.870039 -11.663859 39.248645 -2.828455 10.338448 24.158492 -2.077600 9.025900 -25.876200 3.234355 7.233068 -0.362404 6.509619 4.060027 -6.883326 4.616119 -17.865208 9.161104 1.754000 -8.813000 6.230000 -72.687203 46.621107 47.253525 111.922759 -64.605104 -81.859657 -0.261576 -1.865939 -46.575271 -7.125000 0.000000 0.000000 77.297315 3.687455 53.447925 -91.119850 60.862905 -68.850224 2.157797 -0.802563 -10.158363 7.125000 0.000000 0.000000 
-5.643303 16.020917 3.858947 -16.008743 43.189674 -14.094443 -36.638171 7.675111 -36.885074 4.577613 14.584963 44.079810 1.078700 -0.938131 15.198008 2.554500 9.936300 28.770700 8.098966 8.403154 8.576859 -4.066045 -12.054389 40.621956 -3.094226 12.607870 25.935667 -1.649000 8.093100 -22.997200 3.448126 6.439279 -0.068319 8.168496 3.665413 -5.194034 4.510600 -17.488509 9.376303 1.670000 -8.620600 6.330900 -74.797674 46.321903 44.180302 115.342725 -63.810225 -84.149719 -0.302673 -1.720509 -46.340793 -7.125000 0.000000 0.000000 76.442368 3.962724 54.105658 -91.465301 61.062587 -69.181133 2.088522 -0.947492 -8.890690 7.125000 0.000000 0.000000 
-5.407286 16.018537 4.154253 -15.823903 43.831181 -13.803309 -37.343692 9.052585 -35.900899 4.682964 14.559754 44.434951 1.224876 -2.095740 13.553936 2.817800 10.394100 30.262700 8.329079 10.253479 8.707663 -4.443922 -12.521689 42.351186 -3.108919 14.126809 25.208199 -1.706700 8.226400 -23.403800 3.177076 6.550034 -0.571622 7.256440 3.753306 -6.850447 4.593172 -17.877132 9.870592 1.684900 -8.796000 6.512100 -72.828625 46.944553 44.157781 119.261849 -62.827928 -86.852541 -0.223822 -1.550648 -46.644274 -7.125000 0.000000 0.000000 77.186810 0.967707 53.361452 -92.988766 61.073637 -70.335096 2.013778 -1.001952 -8.249162 7.125000 0.000000 0.000000 
-5.169717 16.025263 4.459182 -15.913931 44.464359 -13.613146 -37.656961 10.570755 -35.198856 4.890639 14.656465 45.259279 1.623950 -4.409604 12.240075 3.139300 10.917200 32.001200 8.878349 11.813667 8.704861 -5.012329 -13.079398 44.359824 -2.932062 13.151939 23.333174 -1.686300 8.179700 -23.261100 3.155867 6.165013 -0.645866 7.670169 3.566786 -6.645890 4.716116 -17.860384 10.113302 1.702300 -8.768900 6.676100 -72.294077 46.252643 42.765168 123.243838 -61.585186 -89.586556 -0.242844 -1.475049 -46.999566 -7.125000 0.000000 0.000000 77.300645 -0.468631 53.417149 -93.882553 61.148685 -71.020057 2.014931 -0.986455 -7.507829 7.125000 0.000000 0.000000 
-4.932044 16.046578 4.786564 -17.181383 44.653863 -14.286536 -36.532945 11.800855 -34.559109 5.096282 14.767234 45.999038 1.986089 -6.485838 10.482233 3.306800 11.175900 32.875300 10.703954 13.436985 8.671618 -5.729564 -13.675972 46.619637 -2.555168 10.481129 20.654481 -1.862800 8.574300 -24.472600 3.256788 5.927657 -0.655273 8.288712 3.449429 -6.219690 4.787335 -17.835954 10.108520 1.668200 -8.738200 6.616100 -71.711545 44.924997 41.142442 126.652694 -60.354582 -91.944251 -0.366827 -1.485159 -46.659442 -7.125000 0.000000 0.000000 77.424604 -1.901560 53.419285 -94.217507 61.203842 -71.273649 2.048090 -0.980584 -6.010273 7.125000 0.000000 0.000000 
-4.702856 16.061685 5.082491 -18.739418 44.726797 -15.164544 -35.053620 12.519224 -33.753386 5.238359 14.812799 46.370241 2.154059 -7.344491 8.508093 3.466200 11.414000 33.689100 12.748383 15.122765 8.246861 -6.566625 -14.301625 49.097788 -1.962688 6.691602 18.089333 -2.119800 9.111300 -26.144100 3.356370 5.813335 -0.667342 8.626721 3.379194 -5.898959 5.028593 -17.742457 10.034013 1.775500 -8.684800 6.629400 -71.033716 42.854938 39.815496 130.234582 -58.821362 -94.489180 -0.520651 -1.539584 -46.945807 -7.125000 0.000000 0.000000 77.442198 -3.230719 52.937788 -94.340684 61.237008 -71.381155 2.033188 -1.000227 -4.871064 7.125000 0.000000 0.000000 
-4.472840 16.067893 5.329579 -19.658271 45.389599 -15.625034 -34.366282 12.869259 -32.562535 5.289584 14.761835 46.430716 2.334547 -8.243726 7.202907 3.761900 11.836600 35.156300 13.624265 15.950873 7.171310 -7.487344 -14.935227 51.757664 -1.245151 2.841243 15.757444 -2.234600 9.338600 -26.860400 3.370166 5.478023 -0.738110 8.621970 3.199032 -5.895103 5.215463 -17.559144 9.985481 1.889300 -8.595000 6.703500 -70.591498 40.372758 38.359435 133.448736 -57.210660 -96.838930 -0.686869 -1.589535 -47.462995 -7.125000 0.000000 0.000000 77.230956 -4.498369 51.981590 -94.493382 61.260747 -71.515831 1.942895 -1.093671 -4.548953 7.125000 0.000000 0.000000 
-4.231236 16.073998 5.570253 -19.957338 46.492491 -15.652300 -34.401507 13.011948 -31.172577 5.287981 14.650321 46.287988 2.494202 -9.044013 6.015458 3.630900 11.652300 34.512800 13.344579 15.987539 5.404569 -8.425643 -15.551311 54.519339 -0.599458 -0.146916 13.704215 -2.077300 9.025400 -25.874700 3.310662 4.958193 -0.852096 8.549423 2.938472 -6.035030 5.239282 -17.354112 9.877327 1.899200 -8.493600 6.654000 -70.123846 37.582209 36.664394 135.900506 -55.811125 -98.668395 -0.773850 -1.584174 -47.491768 -7.125000 0.000000 0.000000 77.209248 -6.037344 50.809340 -94.546482 61.266335 -71.549819 1.894106 -1.166054 -4.423356 7.125000 0.000000 0.000000 
-4.010222 16.074205 5.826343 -19.658033 47.557922 -15.269089 -34.765722 13.395476 -29.871815 5.264305 14.510208 46.009296 2.601020 -9.455942 4.564580 3.194300 11.003100 32.290200 12.730534 16.229462 3.417482 -9.380616 -16.148070 57.355833 -0.001595 -2.663777 11.776270 -1.881200 8.614100 -24.595400 3.251736 4.493737 -0.912705 8.895495 2.698693 -6.026330 5.252326 -17.208085 9.751773 1.891900 -8.422000 6.676400 -69.873787 34.204289 34.701082 137.798507 -54.570216 -100.120393 -0.788127 -1.575324 -47.642257 -7.125000 0.000000 0.000000 77.075958 -7.494438 49.609932 -94.536891 61.275089 -71.565700 1.877919 -1.161801 -4.605771 7.125000 0.000000 0.000000 
-3.784966 16.075964 6.079226 -19.484449 48.308542 -14.933055 -34.842676 13.761465 -28.582728 5.147991 14.304570 45.437826 2.712539 -9.886469 3.653145 2.997400 10.690800 31.244000 12.426858 16.932948 1.318653 -10.336938 -16.704946 60.191756 0.600587 -5.028506 9.793899 -1.848700 8.543600 -24.377700 3.309268 4.177022 -0.917937 9.759238 2.524625 -5.837347 5.175216 -17.006686 9.878976 1.882900 -8.337200 6.882400 -70.307216 30.405014 32.572334 139.178084 -53.528464 -101.217571 -0.809790 -1.572656 -47.818667 -7.125000 0.000000 0.000000 76.411195 -8.779268 48.441701 -94.208607 61.285782 -71.364348 1.895651 -1.091925 -5.145017 7.125000 0.000000 0.000000 
-3.552467 16.081862 6.314519 -19.203643 49.046638 -14.445701 -34.961715 14.126738 -27.310074 5.002946 14.073871 44.777581 2.851500 -10.524498 3.066391 2.984400 10.669700 31.173800 11.800473 17.474024 -1.144759 -11.238608 -17.202987 62.854515 1.146507 -7.098615 7.980827 -1.850000 8.546400 -24.386300 3.351264 3.906999 -0.975930 10.522137 2.386864 -5.865586 5.082096 -16.613612 9.956563 1.889600 -8.165600 6.991800 -70.881208 26.439109 30.540251 140.128066 -52.705694 -102.007597 -0.805981 -1.554058 -47.999059 -7.125000 0.000000 0.000000 75.902505 -10.416135 46.899175 -93.733721 61.275651 -71.027188 1.929690 -1.037531 -5.993683 7.125000 0.000000 0.000000 
-3.323072 16.058477 6.500042 -15.530196 50.416934 -10.723962 -37.884089 14.071090 -26.281378 4.808483 13.777591 43.895590 2.927285 -11.003370 2.219941 2.895100 10.523300 30.688400 7.582434 17.474450 -5.055965 -12.091751 -17.726062 65.418020 1.321123 -7.674180 6.498003 -1.790900 8.416200 -23.985500 2.977439 3.324152 -1.172105 10.432986 2.117464 -6.000018 5.030744 -16.134602 9.996953 1.839600 -7.916300 7.070000 -70.785086 22.286793 28.636300 141.012697 -51.931607 -102.743007 -0.805473 -1.549897 -48.342562 -7.125000 0.000000 0.000000 76.073863 -12.035257 45.179769 -93.055850 61.214527 -70.508117 1.956209 -0.984296 -7.707809 7.125000 0.000000 0.000000 
-3.088193 16.065513 6.703880 -14.809080 50.994942 -9.736700 -38.173433 13.952137 -24.874789 4.600807 13.487959 43.001166 3.015911 -11.415757 1.810518 2.841200 10.433500 30.392200 6.294218 18.120799 -8.167148 -12.806088 -18.127507 67.525499 1.617793 -8.771718 5.272450 -1.575200 7.918800 -22.467800 2.859549 3.073197 -1.264244 10.272389 1.989255 -6.133721 4.861343 -15.576076 9.899463 1.728500 -7.634800 7.023400 -70.667201 18.112110 26.953834 141.599331 -51.354927 -103.260944 -0.834339 -1.546823 -48.301638 -7.125000 0.000000 0.000000 75.929400 -13.337674 43.915561 -92.022306 61.122584 -69.722208 2.003372 -0.880517 -9.799602 7.125000 0.000000 0.000000 
